<svg width="62" height="62" viewBox="0 0 62 62" fill="none" xmlns="http://www.w3.org/2000/svg">
<path d="M9.08796 9.07762C11.9337 6.23191 15.2482 3.99832 18.9405 2.43546C22.763 0.820502 26.8199 0 31.0071 0C35.1877 0.00651192 39.2447 0.820502 43.0672 2.44197C46.7594 4.00483 50.074 6.23842 52.9197 9.08413C55.7654 11.9298 57.999 15.2444 59.5619 18.9367C61.1768 22.7592 61.9973 26.8161 61.9973 31.0033C61.9973 35.184 61.1768 39.2473 59.5619 43.0699C57.999 46.7621 55.7654 50.0767 52.9197 52.9224C50.074 55.7682 46.7594 58.0017 43.0672 59.5645C39.2447 61.1796 35.1877 62 31.0006 62C26.8199 62 22.7564 61.1795 18.934 59.5645C15.2417 58.0017 11.9271 55.7682 9.08138 52.9224C6.23574 50.0767 4.00208 46.7621 2.43922 43.0699C0.824265 39.2473 0.00382996 35.1905 0.00382996 31.0033C0.00382996 26.8226 0.824329 22.7592 2.43922 18.9367C4.00866 15.2379 6.24225 11.9298 9.08796 9.07762ZM48.1595 7.00032C47.8795 6.78542 47.606 6.5575 47.3194 6.35564C45.8152 5.3007 44.1481 4.44764 42.455 3.73784C38.8474 2.22708 34.9273 1.43262 31.0071 1.43262C28.3958 1.43262 25.7194 1.78427 23.1994 2.47453C24.1957 2.87827 25.4134 3.64668 27.4581 5.39187C29.1578 5.20954 30.8768 5.20303 32.6025 5.36582C34.8557 5.58072 37.1218 6.08213 39.3358 6.86357C41.335 7.56685 42.9174 8.36782 43.9853 8.97994C45.6198 8.39387 47.7297 7.7036 48.7716 7.36498C48.6088 7.41708 48.2702 7.08497 48.1595 7.00032ZM19.9238 14.7495L25.2245 29.219L37.9423 31.661L48.4525 20.8056C47.7427 15.8826 44.3695 11.5196 44.3695 11.5196C44.35 11.5066 42.149 9.91766 38.6195 8.6869C36.5617 7.96408 34.4649 7.50173 32.3746 7.30638C30.6685 7.15009 28.9689 7.17614 27.2888 7.37801L19.9238 14.7495ZM59.4381 29.9679C59.7637 32.0712 59.8354 34.2527 59.666 36.4472C59.92 35.9394 60.1219 35.5096 60.2717 35.1644C60.467 33.8034 60.5647 32.4098 60.5647 30.9903C60.5647 26.6273 59.6205 22.4792 57.9209 18.7479C58.1097 20.7015 58.0185 22.7267 57.8818 24.2635C58.6111 26.0933 59.1321 28.0013 59.4381 29.9679ZM56.8659 41.2401C57.1655 40.1395 57.5171 38.5376 57.6929 36.6166C57.8883 34.4481 57.8297 32.2927 57.5041 30.2283C57.2566 28.6459 56.8594 27.1092 56.3124 25.6309C54.17 23.8206 51.3308 22.7592 49.7614 22.2708L39.4465 32.9243L40.5275 44.6002L50.608 47.9668C53.1737 46.0784 55.2705 43.5777 56.8659 41.2401ZM26.2338 58.1449C28.4805 59.6166 34.1589 59.9683 36.4641 60.0529C39.0037 59.5776 41.4717 58.7636 43.7966 57.6435C45.8283 56.6667 47.7558 55.4555 49.514 54.036C49.4815 53.9774 49.7875 50.8711 49.7745 49.7381L39.5899 46.3388L27.8358 51.4246L26.2144 58.1254C26.2273 58.1385 26.2338 58.1449 26.2338 58.1449ZM6.70459 47.8366C8.4563 50.3632 10.5531 52.714 13.0733 54.4983C15.4371 56.1653 18.6018 56.7384 21.415 57.2007C21.6299 57.2333 24.3193 57.676 24.3389 57.5849L25.9603 50.8776L17.6837 42.2624L6.72413 41.253C6.55476 42.9983 6.33342 45.5444 6.20318 47.1008C6.37249 47.3482 6.53528 47.5956 6.70459 47.8366ZM6.53529 39.0715C6.57436 39.1366 6.61343 39.2083 6.6525 39.2865L17.5665 40.2892L23.4402 30.0134L18.1265 15.5114L10.6248 15.9868C9.02935 17.3217 7.61626 18.8064 6.41807 20.4084C4.92033 22.4205 3.7547 24.6281 2.96017 26.9659C3.79377 34.2072 5.71478 37.8147 6.53529 39.0715ZM2.62162 22.7787C3.26624 21.5349 4.02168 20.3367 4.87474 19.1971C6.22271 17.3933 7.82465 15.7328 9.64147 14.2546C9.97358 12.6071 10.8853 10.0153 13.3337 7.29335C13.2881 7.32591 13.2426 7.36498 13.1969 7.39754C13.0471 7.50825 12.9039 7.62546 12.7541 7.73616C11.0675 9.0646 9.5307 10.5688 8.16971 12.2229C5.64309 15.303 3.7351 18.8781 2.61504 22.7136C2.62162 22.7396 2.62162 22.7592 2.62162 22.7787Z" fill="#676767"/>
</svg>
